<?xml version="1.0" encoding="utf-8"?>
<!-- Generator: Adobe Illustrator 26.1.0, SVG Export Plug-In . SVG Version: 6.00 Build 0)  -->
<svg version="1.1" id="图层_1" xmlns="http://www.w3.org/2000/svg" xmlns:xlink="http://www.w3.org/1999/xlink" x="0px" y="0px"
	 viewBox="0 0 24 24" style="enable-background:new 0 0 24 24;" xml:space="preserve">
<style type="text/css">
	.st0{fill:none;}
</style>
<path class="st0" d="M0,0h24v24H0V0z"/>
<path d="M4.2,2.9C6.3,1,9.1,0,12,0c6.6,0,12,5.4,12,12c0,2.6-0.8,4.9-2.2,6.9L18,12h3.6c0-5.3-4.3-9.6-9.6-9.6c-2.5,0-4.9,1-6.6,2.7
	C5.4,5.1,4.2,2.9,4.2,2.9z M19.8,21.1C17.7,23,14.9,24,12,24C5.4,24,0,18.6,0,12c0-2.6,0.8-4.9,2.2-6.9L6,12H2.4
	c0,5.3,4.3,9.6,9.6,9.6c2.5,0,4.9-1,6.6-2.7L19.8,21.1z"/>
</svg>
