<?xml version="1.0" encoding="utf-8"?>
<!-- Generator: Adobe Illustrator 26.1.0, SVG Export Plug-In . SVG Version: 6.00 Build 0)  -->
<svg version="1.1" id="图层_1" xmlns="http://www.w3.org/2000/svg" xmlns:xlink="http://www.w3.org/1999/xlink" x="0px" y="0px"
	 viewBox="0 0 24 24" style="enable-background:new 0 0 24 24;" xml:space="preserve">
<style type="text/css">
	.st0{fill:none;}
</style>
<path class="st0" d="M0,0h24v24H0V0z"/>
<path d="M10.8,0.2c5.9,0,10.6,4.8,10.6,10.6s-4.8,10.6-10.6,10.6S0.2,16.7,0.2,10.8S4.9,0.2,10.8,0.2z M10.8,19.1
	c4.6,0,8.3-3.7,8.3-8.3c0-4.6-3.7-8.3-8.3-8.3c-4.6,0-8.3,3.7-8.3,8.3C2.5,15.4,6.2,19.1,10.8,19.1z M20.8,19.1l3.3,3.3l-1.7,1.7
	l-3.3-3.3C19.1,20.8,20.8,19.1,20.8,19.1z"/>
</svg>
