<?xml version="1.0" encoding="utf-8"?>
<!-- Generator: Adobe Illustrator 26.1.0, SVG Export Plug-In . SVG Version: 6.00 Build 0)  -->
<svg version="1.1" id="图层_1" xmlns="http://www.w3.org/2000/svg" xmlns:xlink="http://www.w3.org/1999/xlink" x="0px" y="0px"
	 viewBox="0 0 24 24" style="enable-background:new 0 0 24 24;" xml:space="preserve">
<style type="text/css">
	.st0{fill:none;}
</style>
<path class="st0" d="M0,0h24v24H0V0z"/>
<path d="M12,0l10.4,6v12L12,24L1.6,18V6L12,0z M12,2.5L3.8,7.3v9.5l8.2,4.7l8.2-4.7V7.3L12,2.5z M12,16.4c-2.4,0-4.4-2-4.4-4.4
	s2-4.4,4.4-4.4s4.4,2,4.4,4.4S14.4,16.4,12,16.4z M12,14.2c1.2,0,2.2-1,2.2-2.2s-1-2.2-2.2-2.2s-2.2,1-2.2,2.2S10.8,14.2,12,14.2z"
	/>
</svg>
